<?xml version="1.0" encoding="iso-8859-1"?>
<!-- Generator: Adobe Illustrator 18.0.0, SVG Export Plug-In . SVG Version: 6.00 Build 0)  -->
<!DOCTYPE svg PUBLIC "-//W3C//DTD SVG 1.1//EN" "http://www.w3.org/Graphics/SVG/1.1/DTD/svg11.dtd">
<svg version="1.1" id="Capa_1" xmlns="http://www.w3.org/2000/svg" xmlns:xlink="http://www.w3.org/1999/xlink" x="0px" y="0px"
	 viewBox="0 0 59.428 59.428" style="enable-background:new 0 0 59.428 59.428;" xml:space="preserve">
<path d="M53.925,14.63C48.474,4.597,39.585-0.799,29.83,0.096C23.153,0.711,18.717,2.98,16.65,6.844
	c-3.506,6.548,1.196,15.104,1.398,15.465l0.281,0.505l0.583,0.006c0.015,0,0.241,0.009,0.61,0.076
	c-0.842,1.475-1.296,3.155-1.296,4.865v9.881c0,8.718-7.178,15.81-16,15.81c-0.553,0-1,0.442-1,0.988c0,0.546,0.447,0.988,1,0.988
	c9.766,0,17.724-7.731,17.976-17.322c2.421-2.239,5.685-3.211,8.943-2.692c0.418,2.051,0.701,4.422,0.778,7.195
	c0.437,15.606,8.711,16.819,11.236,16.819c0.396,0,0.688-0.029,0.831-0.047l0.095,0.001c4.706-0.001,8.326-1.472,10.758-4.373
	c4.365-5.208,3.425-13.284,3.13-15.18C59.581,34.008,58.747,23.506,53.925,14.63z M40.226,39.081h-3v2.964
	c0,0.546-0.447,0.988-1,0.988s-1-0.442-1-0.988v-3.593c-1.531-1.475-3.342-2.435-5.232-2.889c0.542,0.13,1.076-0.197,1.207-0.727
	c0.131-0.531-0.199-1.065-0.735-1.194c-2.991-0.717-6.035-0.329-8.675,0.988c1.413-2.455,3.067-4.271,4.951-5.392
	c0.474-0.281,0.626-0.889,0.341-1.356c-0.285-0.468-0.9-0.62-1.372-0.337c-2.101,1.25-3.932,3.211-5.484,5.82V27.76
	c0-1.833,0.614-3.551,1.776-4.972c0.348-0.425,0.281-1.047-0.148-1.39c-0.386-0.309-0.922-0.269-1.281,0.044
	c1.633-1.931,3.982-3.251,6.653-3.514v-3.015c0-0.546,0.447-0.988,1-0.988s1,0.442,1,0.988v2.964h3c0.553,0,1,0.442,1,0.988
	c0,0.546-0.447,0.988-1,0.988h-4c-2.835,0-5.324,1.469-6.746,3.673c1.329,0.611,2.979,1.754,4.471,3.873
	c1.121-0.628,2.195-0.992,3.15-1.187c2.179-0.444,4.164-0.083,5.405,0.579l2.244-2.217c0.391-0.386,1.023-0.386,1.414,0
	s0.391,1.011,0,1.397l-2.121,2.096l2.121,2.097c0.391,0.386,0.391,1.011,0,1.397c-0.195,0.193-0.451,0.289-0.707,0.289
	s-0.512-0.096-0.707-0.289l-2.829-2.796c-0.445-0.439-2.198-1.069-4.416-0.618c-0.763,0.155-1.62,0.449-2.519,0.947
	c0.624,1.175,1.19,2.569,1.658,4.226c2.901,0.274,5.752,1.534,8.051,3.781h3.53c0.553,0,1,0.442,1,0.988
	C41.226,38.639,40.779,39.081,40.226,39.081z M52.409,32.731c-0.01,0.02-0.01,0.043-0.021,0.063
	c-0.06,0.103-0.139,0.185-0.226,0.256c-0.021,0.018-0.043,0.033-0.066,0.049c-0.095,0.067-0.197,0.121-0.309,0.151
	c-0.003,0.001-0.004,0.003-0.007,0.003c-4.793,1.269-7.647,6.156-6.363,10.893c0.143,0.527-0.174,1.069-0.707,1.21
	c-0.087,0.023-0.174,0.034-0.26,0.034c-0.441,0-0.846-0.29-0.965-0.732c-1.396-5.146,1.211-10.429,5.921-12.63
	c-1.696-1.41-2.915-3.274-3.493-5.404c-0.579-2.134-0.464-4.355,0.295-6.416c-0.307,0.025-0.613,0.06-0.92,0.06
	c-1.905,0-3.786-0.493-5.479-1.459c-2.543-1.451-4.362-3.796-5.123-6.602c-0.143-0.527,0.174-1.069,0.707-1.21
	c0.534-0.142,1.083,0.172,1.225,0.699c0.622,2.297,2.111,4.215,4.191,5.402c2.08,1.187,4.502,1.502,6.829,0.887
	c0.127-0.034,0.26-0.042,0.392-0.025c0.262,0.034,0.5,0.17,0.661,0.378c0.161,0.208,0.232,0.471,0.198,0.731
	c-0.014,0.107-0.055,0.206-0.103,0.301c-0.01,0.02-0.01,0.043-0.021,0.063c-1.203,2.058-1.53,4.431-0.92,6.681
	c0.61,2.249,2.094,4.142,4.176,5.331h0l0,0c0.003,0.001,0.004,0.004,0.006,0.006c0.109,0.064,0.207,0.148,0.286,0.249
	c0.162,0.208,0.233,0.472,0.198,0.732C52.497,32.537,52.457,32.636,52.409,32.731z"/>
<g>
</g>
<g>
</g>
<g>
</g>
<g>
</g>
<g>
</g>
<g>
</g>
<g>
</g>
<g>
</g>
<g>
</g>
<g>
</g>
<g>
</g>
<g>
</g>
<g>
</g>
<g>
</g>
<g>
</g>
</svg>
