<?xml version="1.0" standalone="no"?>
<!DOCTYPE svg PUBLIC "-//W3C//DTD SVG 20010904//EN"
 "http://www.w3.org/TR/2001/REC-SVG-20010904/DTD/svg10.dtd">
<svg version="1.0" xmlns="http://www.w3.org/2000/svg"
 width="512.000000pt" height="512.000000pt" viewBox="0 0 512.000000 512.000000"
 preserveAspectRatio="xMidYMid meet">

<g transform="translate(0.000000,512.000000) scale(0.100000,-0.100000)"
fill="#000000" stroke="none">
<path d="M2064 5101 c-84 -38 -115 -150 -63 -225 14 -21 458 -370 1119 -881
602 -465 1130 -877 1172 -915 313 -284 490 -737 448 -1152 -7 -72 -74 -408
-186 -928 -126 -585 -174 -826 -171 -854 10 -70 67 -125 138 -133 56 -6 126
29 152 74 15 27 202 864 347 1558 41 198 54 370 41 525 -39 456 -227 844 -557
1148 -108 99 -2266 1769 -2311 1788 -44 19 -80 17 -129 -5z"/>
<path d="M975 4981 c-16 -10 -226 -216 -467 -457 -477 -480 -472 -474 -449
-561 16 -59 56 -94 158 -138 152 -65 424 -199 579 -285 662 -369 1162 -792
1616 -1366 111 -140 195 -209 308 -253 285 -111 538 -41 796 218 47 47 109
117 138 156 242 325 292 613 145 834 -81 122 -168 176 -384 241 -954 286
-1690 789 -2189 1497 -34 48 -77 98 -95 110 -43 29 -114 31 -156 4z"/>
<path d="M130 3408 c-55 -38 -74 -72 -74 -133 0 -39 6 -63 20 -82 11 -16 375
-312 809 -660 435 -348 816 -660 847 -693 66 -69 99 -129 123 -221 16 -61 16
-102 -6 -775 -25 -783 -27 -748 37 -804 85 -74 225 -32 252 76 13 49 56 1377
48 1464 -14 150 -88 327 -188 449 -40 48 -261 231 -874 721 -451 362 -830 662
-842 669 -36 19 -115 14 -152 -11z"/>
<path d="M3993 2499 c-102 -39 -181 -146 -245 -329 -32 -93 -33 -99 -33 -260
0 -161 1 -167 33 -260 61 -175 135 -280 231 -323 71 -34 199 -31 267 5 99 52
188 190 235 364 31 112 31 316 0 428 -53 196 -161 347 -271 380 -72 21 -154
19 -217 -5z"/>
<path d="M2952 1720 c-203 -28 -385 -138 -476 -289 -107 -176 -130 -455 -60
-737 21 -82 27 -134 28 -209 0 -90 -4 -111 -38 -208 -41 -116 -42 -146 -6
-204 10 -18 37 -41 60 -53 39 -20 52 -20 564 -18 512 3 525 3 552 24 65 48 69
61 74 243 6 188 -11 137 132 413 80 155 110 260 110 378 0 107 -11 146 -66
240 -118 200 -336 355 -574 404 -91 20 -224 26 -300 16z"/>
</g>
</svg>
