<?xml version="1.0" encoding="iso-8859-1"?>
<!-- Generator: Adobe Illustrator 19.0.0, SVG Export Plug-In . SVG Version: 6.00 Build 0)  -->
<svg version="1.1" id="Layer_1" xmlns="http://www.w3.org/2000/svg" xmlns:xlink="http://www.w3.org/1999/xlink" x="0px" y="0px"
	 viewBox="0 0 512 512" style="enable-background:new 0 0 512 512;" xml:space="preserve">
<path style="fill:#C84146;" d="M273.965,163.228V8.982c0-4.961-4.022-8.982-8.982-8.982h-17.965c-4.961,0-8.982,4.022-8.982,8.982
	v154.246l-25.779,25.777l8.189,42.621l29.203-29.202c3.508-3.508,9.195-3.508,12.702,0l29.937,29.935l7.852-42.956L273.965,163.228z
	"/>
<g>
	<path style="fill:#FF7369;" d="M201.732,463.119c16.272-5.181,27.321-20.303,27.321-37.388V219.01
		c0-41.655-29.465-78.397-46.684-96.312c-6.988-7.271-18.323-7.901-26.211-1.618c-36.399,29-131.503,126.539-141.843,359.915
		c-0.909,20.537,18.731,35.831,38.308,29.597L201.732,463.119z"/>
	<path style="fill:#FF7369;" d="M310.269,463.262c-16.271-5.165-27.321-20.242-27.321-37.277v-206.11
		c0-41.533,29.465-78.165,46.684-96.028c6.988-7.25,18.323-7.878,26.211-1.613c36.399,28.913,131.504,126.165,141.843,358.853
		c0.909,20.477-18.731,35.725-38.308,29.511L310.269,463.262z"/>
</g>
<g>
	<path style="fill:#FF5050;" d="M146.056,428.259c-8.523,0.778-16.541,3.986-22.854,9.291l-81.564,74.158
		c3.584,0.258,7.263,0.068,10.984-1.117l149.109-47.473c16.272-5.179,27.321-20.301,27.321-37.387v-48.467
		C219.179,416.849,169.676,426.101,146.056,428.259z"/>
	<path style="fill:#FF5050;" d="M29.553,498.416c0,0,45.083-40.986,68.297-62.091c7.279-6.618,7.829-17.711,1.448-25.198
		c-28.894-33.907-49.352-78.509-56.241-106.535c-14.687,47.62-25.612,105.75-28.743,176.402
		c-0.439,9.912,3.972,18.532,10.789,24.171C26.094,502.663,27.48,500.301,29.553,498.416z"/>
	<path style="fill:#FF5050;" d="M156.159,121.08C119.827,150.026,25.024,247.277,14.388,479.708
		c21.333-15.01,49.244-41.092,50.735-55.287C88.702,199.86,182.369,122.698,182.369,122.698
		C175.381,115.428,164.046,114.797,156.159,121.08z"/>
</g>
<path style="fill:#C84146;" d="M43.058,304.592c-14.595,47.324-25.46,105.055-28.666,175.113
	c21.334-15.01,49.241-41.09,50.732-55.284c1.92-18.291,4.346-35.503,7.108-51.876C57.761,347.877,47.523,322.759,43.058,304.592z"/>
<g>
	<path style="fill:#FF5050;" d="M310.269,463.262l36.922,11.721c-8.633-11.771-14.84-28.106-5.321-52.611
		c11.967-30.81-58.923-62.976-58.923-125.951v129.564C282.948,443.02,293.997,458.097,310.269,463.262z"/>
	<path style="fill:#FF5050;" d="M465.308,293.908c-9.484,70.173-42.792,133.841-88.729,190.405l82.798,26.284
		c19.577,6.215,39.217-9.034,38.308-29.511C494.303,404.949,481.816,343.395,465.308,293.908z"/>
	<path style="fill:#FF5050;" d="M316.632,423.298c4.956-6.939-5.833-222.893-8.431-273.446
		c-13.194,18.926-25.253,43.458-25.253,70.023v206.11c0,3.723,0.615,7.323,1.61,10.777
		C297.47,433.104,313.394,427.832,316.632,423.298z"/>
</g>
<path style="fill:#C84146;" d="M316.632,423.298c1.461-2.045,1.547-22.317,0.886-51.089c-16.394-19.916-34.57-43.892-34.57-75.788
	v129.564c0,3.723,0.615,7.323,1.61,10.777C297.47,433.104,313.394,427.832,316.632,423.298z"/>
<g>
</g>
<g>
</g>
<g>
</g>
<g>
</g>
<g>
</g>
<g>
</g>
<g>
</g>
<g>
</g>
<g>
</g>
<g>
</g>
<g>
</g>
<g>
</g>
<g>
</g>
<g>
</g>
<g>
</g>
</svg>
