<?xml version="1.0" encoding="iso-8859-1"?>
<!-- Generator: Adobe Illustrator 16.0.0, SVG Export Plug-In . SVG Version: 6.00 Build 0)  -->
<!DOCTYPE svg PUBLIC "-//W3C//DTD SVG 1.1//EN" "http://www.w3.org/Graphics/SVG/1.1/DTD/svg11.dtd">
<svg version="1.1" id="Capa_1" xmlns="http://www.w3.org/2000/svg" xmlns:xlink="http://www.w3.org/1999/xlink" x="0px" y="0px"
	 width="464.926px" height="464.927px" viewBox="0 0 464.926 464.927" style="enable-background:new 0 0 464.926 464.927;"
	 xml:space="preserve">
<g>
	<g id="Layer_2_19_">
		<g>
			<path d="M41.934,127.872c0,8.781,6.015,16.141,14.144,18.235c-6.526,10.054-10.148,23.198-10.148,38.306
				c0,16.137,3.823,29.154,11.363,38.688c7.588,9.596,18.56,15.03,31.887,15.838c13.579,23.947,33.484,45.711,56.63,61.801
				c26.824,18.646,56.432,28.783,85.813,29.421v0.007c0.029,0,0.058-0.003,0.087-0.003c0.029,0,0.058,0.003,0.087,0.003v-0.007
				c0.222-0.005,0.444-0.022,0.666-0.028c0.222,0.006,0.444,0.023,0.666,0.028v0.007c0.029,0,0.058-0.003,0.087-0.003
				s0.058,0.003,0.087,0.003v-0.007c29.381-0.638,58.988-10.774,85.812-29.421c23.146-16.09,43.051-37.854,56.631-61.801
				c13.326-0.809,24.299-6.242,31.887-15.838c7.539-9.534,11.363-22.551,11.363-38.688c0-15.107-3.623-28.251-10.148-38.306
				c8.129-2.095,14.145-9.454,14.145-18.235c0-6.838-3.652-12.809-9.102-16.114c4.676-3.144,7.75-8.479,7.75-14.535
				c0-9.667-7.836-17.505-17.504-17.505c-1.156,0-2.285,0.12-3.381,0.334c1.293-2.441,2.033-5.222,2.033-8.175
				c0-9.668-7.838-17.505-17.504-17.505c-3.613,0-6.967,1.096-9.756,2.97c-2.111-7.293-8.828-12.63-16.803-12.63
				c-5.287,0-10.02,2.351-13.229,6.058c-3.209-3.4-6.547-6.681-10.02-9.82C306.417,14.667,270.151,0.142,233.303,0.002V0
				c-0.029,0-0.058,0.001-0.087,0.001c-0.029,0-0.058-0.001-0.087-0.001v0.002c-0.223,0.001-0.443,0.009-0.666,0.011
				c-0.223-0.002-0.443-0.01-0.666-0.011V0c-0.029,0-0.058,0.001-0.087,0.001c-0.029,0-0.058-0.001-0.087-0.001v0.002
				c-36.847,0.14-73.112,14.665-102.176,40.948c-3.473,3.14-6.811,6.42-10.019,9.82c-3.21-3.707-7.942-6.058-13.229-6.058
				c-7.975,0-14.69,5.337-16.803,12.63c-2.788-1.875-6.143-2.97-9.755-2.97c-9.667,0-17.504,7.837-17.504,17.505
				c0,2.953,0.739,5.734,2.033,8.175c-1.096-0.214-2.224-0.334-3.381-0.334c-9.667,0-17.504,7.838-17.504,17.505
				c0,6.056,3.075,11.391,7.75,14.535C45.587,115.063,41.934,121.034,41.934,127.872z M389.961,107.464
				c0.32,0.444,0.66,0.87,1.02,1.278c-0.494-0.302-0.988-0.601-1.502-0.871C389.643,107.741,389.801,107.602,389.961,107.464z
				 M74.962,107.464c0.16,0.138,0.319,0.276,0.484,0.407c-0.514,0.271-1.009,0.569-1.503,0.871
				C74.301,108.334,74.642,107.908,74.962,107.464z M78.235,153.081c2.713,1.021,5.648,1.587,8.72,1.587
				c13.708,0,24.82-11.113,24.82-24.819c0-2.872-0.514-5.619-1.409-8.184c11.718-1.986,20.65-12.159,20.65-24.441
				c0-1.497-0.155-2.956-0.409-4.38c3.724-4.338,5.987-9.968,5.987-16.135c0-3.564-0.766-6.944-2.12-10.007
				c24.151-26.232,57.666-44.828,97.234-44.968c0.252,0.001,0.501,0.011,0.753,0.014c0.252-0.002,0.501-0.013,0.753-0.014
				c39.567,0.14,73.083,18.736,97.233,44.968c-1.354,3.063-2.119,6.442-2.119,10.007c0,6.167,2.264,11.796,5.986,16.135
				c-0.254,1.424-0.408,2.883-0.408,4.38c0,12.282,8.932,22.455,20.65,24.441c-0.896,2.565-1.41,5.312-1.41,8.184
				c0,13.707,11.113,24.819,24.82,24.819c3.07,0,6.008-0.566,8.721-1.587c9.65,9.125,10.572,25.519,10.572,31.332
				c0,21.832-8.43,32.901-25.053,32.901c-0.383,0-0.953-0.045-1.555-0.094l-7.707-0.59l-3.301,6.404
				c-20.865,40.474-69.111,83.983-126.433,85.396c-0.252-0.007-0.502-0.021-0.753-0.027c-0.251,0.008-0.501,0.021-0.753,0.027
				c-57.32-1.412-105.566-44.922-126.432-85.396l-3.302-6.404l-7.707,0.59c-0.602,0.048-1.171,0.094-1.555,0.094
				c-16.623,0-25.052-11.07-25.052-32.901C67.662,178.6,68.583,162.206,78.235,153.081z"/>
			<g>
				<path d="M182.621,212.556c13.394,0,24.282-10.871,24.282-24.301c0-13.413-10.889-24.301-24.282-24.301
					c-13.43,0-24.319,10.888-24.319,24.301C158.301,201.65,169.191,212.556,182.621,212.556z M187.602,178.798
					c6.879,0,12.435,5.587,12.435,12.453c0,6.9-5.556,12.488-12.435,12.488c-6.883,0-12.455-5.587-12.455-12.488
					C175.147,184.385,180.719,178.798,187.602,178.798z"/>
				<path d="M282.302,212.556c13.431,0,24.319-10.906,24.319-24.301c0-13.413-10.891-24.301-24.319-24.301
					c-13.394,0-24.282,10.888-24.282,24.301C258.02,201.685,268.909,212.556,282.302,212.556z M277.321,178.798
					c6.883,0,12.455,5.587,12.455,12.453c0,6.9-5.572,12.488-12.455,12.488c-6.879,0-12.435-5.587-12.435-12.488
					C264.886,184.385,270.442,178.798,277.321,178.798z"/>
			</g>
			<path d="M164.296,252.122c0,3.521,2.854,6.375,6.375,6.375c0.049,0,0.097-0.006,0.146-0.007
				c5.243,0.354,39.158-3.773,60.893-3.811c0.253,0,0.501,0.002,0.753,0.004c0.252-0.002,0.5-0.004,0.753-0.004
				c21.733,0.037,55.649,4.164,60.894,3.811c0.049,0.001,0.096,0.007,0.145,0.007c3.521,0,6.375-2.854,6.375-6.375
				c0-2.212-1.127-4.159-2.838-5.303c-6.631-5.257-32.717-19.646-64.487-19.879v-0.004c-0.029,0-0.058,0.001-0.087,0.002
				c-0.029,0-0.058-0.001-0.087-0.002v0.004c-0.224,0.001-0.443,0.013-0.666,0.016c-0.223-0.003-0.442-0.015-0.666-0.016v-0.004
				c-0.029,0-0.058,0.001-0.087,0.002c-0.029,0-0.058-0.001-0.087-0.002v0.004c-31.771,0.233-57.857,14.623-64.488,19.879
				C165.423,247.963,164.296,249.91,164.296,252.122z"/>
			<path d="M338.852,321.451c-0.002,0-0.021,0.008-0.031,0.011c-0.107-0.008-0.211-0.032-0.324-0.032
				c-2.684,0-4.857,2.176-4.857,4.858c0,0.019,0.004,0.036,0.004,0.056s-0.006,0.037-0.006,0.057c0,0.199,0.035,0.39,0.059,0.582
				c-0.002,0.002-0.008,0.013-0.008,0.013l0.031,0.218c0.014,0.074,0.018,0.149,0.031,0.223l8.939,61.134
				c0.611,4.193-1.068,8.393-4.404,11.005c-2.115,1.654-4.684,2.511-7.279,2.511c-1.508,0-3.02-0.291-4.463-0.878
				c0,0-56.465-25.275-67.489-29.011c-0.026-0.011-0.075-0.009-0.114-0.013c-0.729-0.265-1.511-0.416-2.33-0.416
				c-2.095,0-3.965,0.942-5.219,2.426c-0.003,0.001-0.02,0.006-0.02,0.006l-13.943,13.978c0,0-0.025-0.016-0.037-0.023
				c-1.23,1.185-2.898,1.917-4.739,1.917c-0.064,0-0.126-0.008-0.188-0.009c-0.063,0.001-0.124,0.009-0.188,0.009
				c-1.843,0-3.51-0.732-4.74-1.917c-0.012,0.008-0.037,0.023-0.037,0.023l-13.944-13.978c0,0-0.016-0.005-0.019-0.006
				c-1.254-1.483-3.125-2.426-5.219-2.426c-0.818,0-1.601,0.151-2.329,0.416c-0.039,0.004-0.089,0.002-0.115,0.013
				c-11.025,3.735-67.489,29.011-67.489,29.011c-1.443,0.587-2.955,0.878-4.463,0.878c-2.596,0-5.166-0.856-7.28-2.511
				c-3.338-2.612-5.016-6.812-4.403-11.005l9.04-61.212c0.002-0.01-0.009-0.012-0.01-0.021c0.075-0.338,0.121-0.688,0.121-1.049
				c0-2.685-2.176-4.858-4.86-4.858c-0.128,0-0.248,0.027-0.374,0.037c-0.025-0.002-0.057-0.017-0.081-0.016
				c-35.98,2.393-82.46,34.799-82.46,75.608c0,42.418,0,67.867,0,67.867h188.851h188.852c0,0,0-25.451,0-67.867
				C421.313,356.25,374.833,323.844,338.852,321.451z"/>
		</g>
	</g>
</g>
<g>
</g>
<g>
</g>
<g>
</g>
<g>
</g>
<g>
</g>
<g>
</g>
<g>
</g>
<g>
</g>
<g>
</g>
<g>
</g>
<g>
</g>
<g>
</g>
<g>
</g>
<g>
</g>
<g>
</g>
</svg>
