<?xml version="1.0" standalone="no"?>
<!DOCTYPE svg PUBLIC "-//W3C//DTD SVG 20010904//EN"
 "http://www.w3.org/TR/2001/REC-SVG-20010904/DTD/svg10.dtd">
<svg version="1.0" xmlns="http://www.w3.org/2000/svg"
 width="512.000000pt" height="512.000000pt" viewBox="0 0 512.000000 512.000000"
 preserveAspectRatio="xMidYMid meet">

<g transform="translate(0.000000,512.000000) scale(0.100000,-0.100000)"
fill="#000000" stroke="none">
<path d="M1868 5104 c-176 -42 -326 -177 -385 -346 -52 -149 -39 -290 40 -448
l43 -85 991 -3 991 -2 30 52 c79 140 109 305 78 427 -60 234 -256 402 -491
418 -161 11 -291 -44 -435 -185 -152 -149 -189 -149 -341 1 -59 58 -117 104
-155 125 -113 59 -246 76 -366 46z"/>
<path d="M1353 3905 c-374 -68 -663 -358 -728 -731 -15 -86 -16 -87 -79 -155
-321 -340 -310 -888 24 -1228 l62 -63 -12 -86 c-64 -446 223 -874 665 -993 62
-17 110 -22 210 -23 115 0 138 2 200 25 108 39 181 91 290 207 215 229 263
272 338 308 118 55 235 68 371 39 125 -27 241 -92 390 -221 292 -253 372 -306
524 -345 330 -84 707 115 845 447 41 99 52 161 52 294 -1 114 -4 133 -33 219
l-32 93 47 42 c198 172 305 387 320 641 13 237 -73 475 -233 644 -63 67 -64
70 -79 152 -73 419 -413 721 -840 746 -83 5 -115 2 -184 -16 -128 -32 -206
-83 -336 -219 -237 -249 -256 -267 -335 -305 -93 -46 -170 -61 -280 -54 -172
11 -264 68 -459 281 -187 204 -263 259 -408 297 -87 22 -193 23 -300 4z m231
-1166 c75 -34 152 -17 229 51 l37 32 107 -98 c60 -54 109 -101 111 -105 6 -14
-124 -110 -193 -144 -187 -91 -371 -64 -552 79 -40 31 -73 60 -72 64 0 4 50
51 111 104 l110 98 36 -31 c20 -18 54 -40 76 -50z m1800 0 c75 -34 152 -17
229 51 l37 32 107 -98 c60 -54 109 -101 111 -105 6 -14 -124 -110 -193 -144
-187 -91 -371 -64 -552 79 -40 31 -73 60 -72 64 0 4 50 51 111 104 l110 98 36
-31 c20 -18 54 -40 76 -50z m-900 -450 c75 -34 152 -17 229 51 l37 32 107 -98
c60 -54 109 -101 111 -105 6 -14 -124 -110 -193 -144 -144 -70 -286 -70 -430
0 -66 32 -196 128 -194 143 0 4 50 51 111 105 l110 97 36 -31 c20 -18 54 -40
76 -50z m-900 -450 c75 -34 152 -17 229 51 l37 32 107 -98 c60 -54 109 -101
111 -105 6 -14 -124 -110 -193 -144 -144 -70 -287 -70 -430 0 -67 33 -196 128
-194 143 0 4 50 51 111 105 l110 97 36 -31 c20 -18 54 -40 76 -50z m1800 0
c75 -34 152 -17 229 51 l37 32 107 -98 c60 -54 109 -101 111 -105 6 -14 -124
-110 -193 -144 -144 -70 -287 -70 -430 0 -67 33 -196 128 -194 143 0 4 50 51
111 105 l110 97 36 -31 c20 -18 54 -40 76 -50z"/>
<path d="M2268 3823 c128 -139 162 -170 204 -188 51 -21 134 -19 183 4 52 25
73 44 190 174 l97 107 -382 0 -382 0 90 -97z"/>
<path d="M2465 902 c-45 -21 -82 -56 -204 -190 l-83 -92 431 0 c237 0 431 2
431 4 0 5 -179 159 -237 204 -105 82 -253 114 -338 74z"/>
<path d="M1810 160 l0 -160 750 0 750 0 0 160 0 160 -750 0 -750 0 0 -160z"/>
</g>
</svg>
